<svg width="145" height="134" viewBox="0 0 145 134" fill="none" xmlns="http://www.w3.org/2000/svg">
<g opacity="0.2">
<path d="M131.962 28.8791C124.208 28.8791 117.923 22.4143 117.923 14.4396C117.923 6.46481 124.208 -9.52545e-07 131.962 -6.13641e-07C139.715 -2.74736e-07 146 6.46481 146 14.4396C146 22.4143 139.715 28.8791 131.962 28.8791Z" fill="white"/>
<path d="M21.4263 21.1359L1.08143 40.5019C-0.901881 42.3897 -0.0250836 45.7099 2.63511 46.3851L12.9342 48.9995C12.9213 49.0608 12.9477 49.1029 13.0177 49.1236C25.63 53.1678 26.0283 60.9146 25.5204 64.537C20.5505 82.3188 24.8641 102.177 38.6291 116.477C59.2816 137.931 93.4347 138.796 115.157 118.507L94.107 96.6395C84.4551 105.318 69.5488 104.832 60.4927 95.4243C51.4366 86.0165 51.5999 71.1864 60.7401 61.9766L21.4263 21.1359Z" fill="white"/>
<path d="M21.4263 21.1359L41.7707 1.77034C43.754 -0.11754 47.0513 0.898553 47.6135 3.57085L49.7902 13.9167C49.8524 13.9065 49.8936 13.9346 49.9113 14.0051C53.4238 26.7129 61.1905 27.4459 64.8515 27.0992C82.9329 22.9391 102.695 28.092 116.459 42.3913C137.112 63.8458 136.489 97.8131 115.157 118.507L94.107 96.6395C103.247 87.4298 103.41 72.6002 94.3538 63.1925C85.2978 53.7848 70.392 53.2989 60.7401 61.9766L21.4263 21.1359Z" fill="white"/>
</g>
</svg>
