<svg width="20" height="20" viewBox="0 0 20 20" fill="none" xmlns="http://www.w3.org/2000/svg">
<g clip-path="url(#clip0_837_5339)">
<path d="M10.833 3.3335H15.333C15.7997 3.3335 16.0337 3.3335 16.212 3.42432C16.3688 3.50422 16.4953 3.63161 16.5752 3.78841C16.666 3.96667 16.6663 4.2002 16.6663 4.66691V5.2875C16.6663 5.48719 16.6663 5.58809 16.6436 5.68301C16.6231 5.76804 16.589 5.84927 16.5433 5.92383C16.4918 6.00793 16.4199 6.07999 16.2758 6.22412L14.9997 7.50026M6.24935 3.3335H4.66602C4.19931 3.3335 3.96618 3.3335 3.78792 3.42432C3.63112 3.50422 3.50373 3.63161 3.42384 3.78841C3.33301 3.96667 3.33301 4.2002 3.33301 4.66691V5.28129C3.33301 5.48512 3.33301 5.58711 3.35603 5.68301C3.37645 5.76804 3.4102 5.84927 3.45589 5.92383C3.50741 6.0079 3.5796 6.08009 3.72363 6.22412L7.94258 10.4431C8.0867 10.5872 8.15837 10.6589 8.20991 10.743C8.2556 10.8175 8.28981 10.899 8.31022 10.984C8.33301 11.079 8.33301 11.1798 8.33301 11.3795V15.3427C8.33301 16.057 8.33301 16.4144 8.48346 16.6295C8.61484 16.8174 8.81751 16.9426 9.04427 16.9761C9.30396 17.0145 9.6236 16.855 10.2625 16.5355L10.9292 16.2021C11.1967 16.0684 11.3302 16.0012 11.4279 15.9014C11.5144 15.8132 11.5805 15.7072 11.6208 15.5905C11.6663 15.4584 11.6663 15.3085 11.6663 15.0093V11.3857C11.6663 11.1818 11.6663 11.08 11.6894 10.984C11.7098 10.899 11.7435 10.8176 11.7892 10.7431C11.8406 10.6593 11.9123 10.5875 12.0554 10.4444L12.057 10.443L12.9164 9.58355M12.9164 9.58355L4.16634 0.833496M12.9164 9.58355L15.833 12.5002" stroke="white" stroke-width="2" stroke-linecap="round" stroke-linejoin="round"/>
</g>
<defs>
<clipPath id="clip0_837_5339">
<rect width="20" height="20" fill="white"/>
</clipPath>
</defs>
</svg>
