<svg width="28" height="28" viewBox="0 0 28 28" fill="none" xmlns="http://www.w3.org/2000/svg">
<g clip-path="url(#clip0_837_3763)">
<path d="M9.76714 13.9323L10.3283 14.4935L9.76714 13.9323ZM8 16.4314H7.2064H8ZM12.2662 20.6977V21.4913V20.6977ZM13.9323 9.76714L13.3712 9.20597V9.20597L13.9323 9.76714ZM15.0372 18.6587C15.3472 18.9686 15.8496 18.9686 16.1596 18.6587C16.4695 18.3487 16.4695 17.8463 16.1596 17.5363L15.0372 18.6587ZM11.1613 12.5381C10.8514 12.2282 10.3489 12.2282 10.039 12.5381C9.72909 12.848 9.72909 13.3505 10.039 13.6604L11.1613 12.5381ZM18.3694 14.2042L14.2042 18.3694L15.3265 19.4917L19.4917 15.3265L18.3694 14.2042ZM10.3283 14.4935L14.4935 10.3283L13.3712 9.20597L9.20597 13.3712L10.3283 14.4935ZM10.3283 18.3694C9.72339 17.7645 9.32735 17.366 9.07272 17.0323C8.83205 16.7169 8.7936 16.5541 8.7936 16.4314H7.2064C7.2064 17.0407 7.46247 17.5385 7.81085 17.9951C8.14526 18.4334 8.63279 18.9185 9.20597 19.4917L10.3283 18.3694ZM9.20597 13.3712C8.63279 13.9443 8.14526 14.4295 7.81085 14.8678C7.46247 15.3244 7.2064 15.8222 7.2064 16.4314H8.7936C8.7936 16.3087 8.83205 16.146 9.07272 15.8306C9.32735 15.4968 9.72339 15.0984 10.3283 14.4935L9.20597 13.3712ZM14.2042 18.3694C13.5993 18.9743 13.2009 19.3703 12.8671 19.625C12.5517 19.8656 12.3889 19.9041 12.2662 19.9041V21.4913C12.8755 21.4913 13.3733 21.2352 13.8299 20.8868C14.2682 20.5524 14.7533 20.0649 15.3265 19.4917L14.2042 18.3694ZM9.20597 19.4917C9.77916 20.0649 10.2643 20.5524 10.7026 20.8868C11.1592 21.2352 11.657 21.4913 12.2662 21.4913V19.9041C12.1435 19.9041 11.9808 19.8656 11.6654 19.625C11.3316 19.3703 10.9332 18.9743 10.3283 18.3694L9.20597 19.4917ZM18.3694 10.3283C18.9743 10.9332 19.3703 11.3316 19.625 11.6654C19.8656 11.9808 19.9041 12.1435 19.9041 12.2662H21.4913C21.4913 11.657 21.2352 11.1592 20.8868 10.7026C20.5524 10.2643 20.0649 9.77916 19.4917 9.20597L18.3694 10.3283ZM19.4917 15.3265C20.0649 14.7533 20.5524 14.2682 20.8868 13.8299C21.2352 13.3733 21.4913 12.8755 21.4913 12.2662H19.9041C19.9041 12.3889 19.8656 12.5517 19.625 12.8671C19.3703 13.2009 18.9743 13.5993 18.3694 14.2042L19.4917 15.3265ZM19.4917 9.20597C18.9185 8.63279 18.4334 8.14526 17.9951 7.81085C17.5385 7.46247 17.0407 7.2064 16.4314 7.2064V8.7936C16.5541 8.7936 16.7169 8.83205 17.0323 9.07272C17.366 9.32735 17.7645 9.72339 18.3694 10.3283L19.4917 9.20597ZM14.4935 10.3283C15.0984 9.72339 15.4968 9.32735 15.8306 9.07272C16.146 8.83205 16.3087 8.7936 16.4314 8.7936V7.2064C15.8222 7.2064 15.3244 7.46247 14.8678 7.81085C14.4295 8.14526 13.9443 8.63279 13.3712 9.20597L14.4935 10.3283ZM16.1596 17.5363L11.1613 12.5381L10.039 13.6604L15.0372 18.6587L16.1596 17.5363Z" fill="#727C89"/>
<path d="M3 13.5814C3 8.59328 3 6.09922 4.54961 4.54961C6.09922 3 8.59328 3 13.5814 3C18.5695 3 21.0636 3 22.6132 4.54961C24.1628 6.09922 24.1628 8.59328 24.1628 13.5814C24.1628 18.5695 24.1628 21.0636 22.6132 22.6132C21.0636 24.1628 18.5695 24.1628 13.5814 24.1628C8.59328 24.1628 6.09922 24.1628 4.54961 22.6132C3 21.0636 3 18.5695 3 13.5814Z" stroke="#727C89" stroke-width="1.58721"/>
</g>
<defs>
<clipPath id="clip0_837_3763">
<rect width="28" height="28" fill="white"/>
</clipPath>
</defs>
</svg>
