<svg width="29" height="28" viewBox="0 0 29 28" fill="none" xmlns="http://www.w3.org/2000/svg">
<g clip-path="url(#clip0_837_3769)">
<path d="M23.7789 13.5233C23.7789 18.0126 23.7789 20.2572 22.3843 21.6519C20.9896 23.0465 18.745 23.0465 14.2557 23.0465C9.76637 23.0465 7.52172 23.0465 6.12707 21.6519C4.73242 20.2572 4.73242 18.0126 4.73242 13.5233C4.73242 9.03395 4.73242 6.7893 6.12707 5.39465C7.52172 4 9.76637 4 14.2557 4" stroke="#727C89" stroke-width="1.42849" stroke-linecap="round"/>
<path d="M4.73242 13.9991L6.4005 12.5395C7.26833 11.7802 8.57627 11.8237 9.39166 12.6391L13.4769 16.7243C14.1313 17.3788 15.1616 17.468 15.9188 16.9358L16.2028 16.7363C17.2925 15.9704 18.7668 16.0592 19.7568 16.9501L22.8266 19.713" stroke="#727C89" stroke-width="1.42849" stroke-linecap="round"/>
<path d="M17.1113 7.33314H20.4445M20.4445 7.33314H23.7776M20.4445 7.33314V10.6663M20.4445 7.33314V4" stroke="#727C89" stroke-width="1.42849" stroke-linecap="round"/>
</g>
<defs>
<clipPath id="clip0_837_3769">
<rect width="28" height="28" fill="white" transform="translate(0.732422)"/>
</clipPath>
</defs>
</svg>
