<svg width="17" height="17" viewBox="0 0 17 17" fill="none" xmlns="http://www.w3.org/2000/svg">
<path d="M6.17728 9.88299L10.8409 12.2148M10.8409 5.21939L6.17728 7.55119M13.1727 15.7125C11.8849 15.7125 10.8409 14.6685 10.8409 13.3807C10.8409 12.0929 11.8849 11.0489 13.1727 11.0489C14.4605 11.0489 15.5045 12.0929 15.5045 13.3807C15.5045 14.6685 14.4605 15.7125 13.1727 15.7125ZM3.84548 11.0489C2.55766 11.0489 1.51367 10.0049 1.51367 8.71709C1.51367 7.42927 2.55766 6.38529 3.84548 6.38529C5.1333 6.38529 6.17728 7.42927 6.17728 8.71709C6.17728 10.0049 5.1333 11.0489 3.84548 11.0489ZM13.1727 6.38529C11.8849 6.38529 10.8409 5.3413 10.8409 4.05348C10.8409 2.76566 11.8849 1.72168 13.1727 1.72168C14.4605 1.72168 15.5045 2.76566 15.5045 4.05348C15.5045 5.3413 14.4605 6.38529 13.1727 6.38529Z" stroke="white" stroke-width="1.86544" stroke-linecap="round" stroke-linejoin="round"/>
</svg>
