<svg width="31" height="32" viewBox="0 0 31 32" fill="none" xmlns="http://www.w3.org/2000/svg">
<path d="M31 15.5C31 6.93959 24.0604 0 15.5 0V0C6.93959 0 0 6.93959 0 15.5V15.5C0 24.0604 6.93959 31 15.5 31H31V15.5Z" fill="#FF1066"/>
<path d="M12.7915 20.6499C12.1095 20.6499 11.5033 20.4731 10.9728 20.1194C10.4424 19.7574 10.0256 19.2438 9.72249 18.5786C9.41938 17.905 9.26782 17.0967 9.26782 16.1537C9.26782 15.2107 9.41938 14.4066 9.72249 13.7415C10.0256 13.0679 10.4424 12.5543 10.9728 12.2007C11.5033 11.8386 12.1095 11.6576 12.7915 11.6576C13.4735 11.6576 14.0797 11.8386 14.6102 12.2007C15.1406 12.5543 15.5574 13.0679 15.8605 13.7415C16.172 14.4066 16.3278 15.2107 16.3278 16.1537C16.3278 17.0967 16.172 17.905 15.8605 18.5786C15.5574 19.2438 15.1406 19.7574 14.6102 20.1194C14.0797 20.4731 13.4735 20.6499 12.7915 20.6499ZM12.7915 19.8163C13.3135 19.8163 13.7682 19.6774 14.1555 19.3995C14.5428 19.1133 14.8459 18.7007 15.0648 18.1618C15.2837 17.6146 15.3932 16.9452 15.3932 16.1537C15.3932 15.3623 15.2837 14.6971 15.0648 14.1582C14.8459 13.611 14.5428 13.1984 14.1555 12.9205C13.7682 12.6343 13.3135 12.4911 12.7915 12.4911C12.2863 12.4911 11.8358 12.6343 11.4401 12.9205C11.0444 13.1984 10.7371 13.611 10.5182 14.1582C10.2992 14.6971 10.1898 15.3623 10.1898 16.1537C10.1898 16.9452 10.2992 17.6146 10.5182 18.1618C10.7371 18.7007 11.0444 19.1133 11.4401 19.3995C11.8358 19.6774 12.2863 19.8163 12.7915 19.8163ZM17.4658 20.5741V19.93L21.1411 16.3305C21.4778 16.0022 21.7304 15.7159 21.8988 15.4717C22.0672 15.2191 22.1809 14.9834 22.2398 14.7645C22.2988 14.5456 22.3282 14.3393 22.3282 14.1456C22.3282 13.632 22.1514 13.2279 21.7978 12.9332C21.4526 12.6385 20.939 12.4911 20.257 12.4911C19.735 12.4911 19.2719 12.5711 18.8677 12.7311C18.472 12.8911 18.131 13.1395 17.8447 13.4762L17.2006 12.9205C17.5458 12.5164 17.9879 12.2049 18.5267 11.9859C19.0656 11.767 19.6676 11.6576 20.3328 11.6576C20.9306 11.6576 21.4484 11.7544 21.8862 11.9481C22.324 12.1333 22.6608 12.4069 22.8966 12.769C23.1408 13.131 23.2628 13.5562 23.2628 14.0446C23.2628 14.3308 23.2207 14.6129 23.1365 14.8908C23.0608 15.1686 22.9176 15.4633 22.7071 15.7748C22.5051 16.0779 22.2062 16.4232 21.8104 16.8105L18.4383 20.1194L18.1857 19.7658H23.667V20.5741H17.4658Z" fill="#F0F0F0"/>
</svg>
