<svg width="29" height="28" viewBox="0 0 29 28" fill="none" xmlns="http://www.w3.org/2000/svg">
<g clip-path="url(#clip0_837_3777)">
<path fill-rule="evenodd" clip-rule="evenodd" d="M5.66394 14.5409C6.13325 14.5409 6.51371 14.9214 6.51371 15.3907V20.206H11.3291C11.7984 20.206 12.1788 20.5865 12.1788 21.0558C12.1788 21.5251 11.7984 21.9056 11.3291 21.9056H5.66394C5.19462 21.9056 4.81417 21.5251 4.81417 21.0558V15.3907C4.81417 14.9214 5.19462 14.5409 5.66394 14.5409Z" fill="#727C89"/>
<path fill-rule="evenodd" clip-rule="evenodd" d="M16.1444 4.0604C16.1444 3.59108 16.5249 3.21063 16.9942 3.21063H22.6593C23.1286 3.21063 23.5091 3.59108 23.5091 4.0604V9.72554C23.5091 10.1949 23.1286 10.5753 22.6593 10.5753C22.19 10.5753 21.8096 10.1949 21.8096 9.72554V4.91017H16.9942C16.5249 4.91017 16.1444 4.52972 16.1444 4.0604Z" fill="#727C89"/>
<path fill-rule="evenodd" clip-rule="evenodd" d="M23.2602 3.45952C23.5921 3.79138 23.5921 4.32942 23.2602 4.66128L16.6509 11.2706C16.319 11.6025 15.781 11.6025 15.4491 11.2706C15.1173 10.9387 15.1173 10.4007 15.4491 10.0688L22.0584 3.45952C22.3903 3.12767 22.9283 3.12767 23.2602 3.45952Z" fill="#727C89"/>
<path fill-rule="evenodd" clip-rule="evenodd" d="M13.3462 13.3735C13.6781 13.7054 13.6781 14.2434 13.3462 14.5753L6.26482 21.6567C5.93296 21.9885 5.39492 21.9885 5.06306 21.6567C4.7312 21.3248 4.7312 20.7868 5.06306 20.4549L12.1445 13.3735C12.4763 13.0417 13.0144 13.0417 13.3462 13.3735Z" fill="#727C89"/>
<path d="M6.60811 4.0604C6.60811 4.58186 6.18538 5.00459 5.66392 5.00459C5.14245 5.00459 4.71973 4.58186 4.71973 4.0604C4.71973 3.53894 5.14245 3.11621 5.66392 3.11621C6.18538 3.11621 6.60811 3.53894 6.60811 4.0604Z" fill="#727C89"/>
<path d="M23.6035 21.0558C23.6035 21.5773 23.1808 22 22.6593 22C22.1379 22 21.7151 21.5773 21.7151 21.0558C21.7151 20.5343 22.1379 20.1116 22.6593 20.1116C23.1808 20.1116 23.6035 20.5343 23.6035 21.0558Z" fill="#727C89"/>
</g>
<defs>
<clipPath id="clip0_837_3777">
<rect width="28" height="28" fill="white" transform="translate(0.464844)"/>
</clipPath>
</defs>
</svg>
