<?xml version="1.0" encoding="UTF-8" standalone="no"?>
<svg
   width="16"
   height="16"
   viewBox="0 0 16 16"
   fill="none"
   version="1.1"
   id="svg231"
   sodipodi:docname="arrow-left.svg"
   inkscape:version="1.1 (c4e8f9e, 2021-05-24)"
   xmlns:inkscape="http://www.inkscape.org/namespaces/inkscape"
   xmlns:sodipodi="http://sodipodi.sourceforge.net/DTD/sodipodi-0.dtd"
   xmlns="http://www.w3.org/2000/svg"
   xmlns:svg="http://www.w3.org/2000/svg">
  <defs
     id="defs235" />
  <sodipodi:namedview
     id="namedview233"
     pagecolor="#ffffff"
     bordercolor="#666666"
     borderopacity="1.0"
     inkscape:pageshadow="2"
     inkscape:pageopacity="0.0"
     inkscape:pagecheckerboard="0"
     showgrid="false"
     inkscape:zoom="15.115402"
     inkscape:cx="4.8625897"
     inkscape:cy="9.2289968"
     inkscape:window-width="1296"
     inkscape:window-height="797"
     inkscape:window-x="0"
     inkscape:window-y="25"
     inkscape:window-maximized="0"
     inkscape:current-layer="svg231" />
  <path
     style="color:#000000;fill:#232323;stroke-linecap:round;stroke-linejoin:round;-inkscape-stroke:none"
     d="M 8,3.2734375 A 0.59091002,0.59091002 0 0 0 7.5820312,3.4453125 L 3.4453125,7.5820312 A 0.59091002,0.59091002 0 0 0 3.2714844,8 0.59091002,0.59091002 0 0 0 3.4453125,8.4179688 l 4.1367187,4.1367192 a 0.59091002,0.59091002 0 0 0 0.8359376,0 0.59091002,0.59091002 0 0 0 0,-0.835938 L 5.2910156,8.5917969 H 12.136719 A 0.59091002,0.59091002 0 0 0 12.726563,8 0.59091002,0.59091002 0 0 0 12.136719,7.4101562 H 5.2890625 L 8.4179688,4.28125 a 0.59091002,0.59091002 0 0 0 0,-0.8359375 A 0.59091002,0.59091002 0 0 0 8,3.2734375 Z"
     id="path229" />
</svg>
