<svg width="30" height="30" viewBox="0 0 30 30" fill="none" xmlns="http://www.w3.org/2000/svg">
<g opacity="0.5">
<path d="M14.6875 0.3125C8.83428 0.3125 4.0625 5.08428 4.0625 10.9375C4.0625 16.3672 8.17085 20.8593 13.4375 21.4819V24.0625H10.3125C10.1469 24.0602 9.98241 24.0908 9.8287 24.1525C9.67499 24.2143 9.53508 24.306 9.41712 24.4223C9.29916 24.5386 9.20549 24.6772 9.14156 24.83C9.07762 24.9828 9.0447 25.1468 9.0447 25.3125C9.0447 25.4782 9.07762 25.6422 9.14156 25.795C9.20549 25.9478 9.29916 26.0864 9.41712 26.2027C9.53508 26.319 9.67499 26.4107 9.8287 26.4725C9.98241 26.5342 10.1469 26.5648 10.3125 26.5625H13.4375V28.7317C13.4352 28.8973 13.4658 29.0618 13.5275 29.2155C13.5893 29.3692 13.681 29.5091 13.7973 29.6271C13.9136 29.745 14.0522 29.8387 14.205 29.9026C14.3578 29.9666 14.5218 29.9995 14.6875 29.9995C14.8532 29.9995 15.0172 29.9666 15.17 29.9026C15.3228 29.8387 15.4614 29.745 15.5777 29.6271C15.694 29.5091 15.7857 29.3692 15.8475 29.2155C15.9092 29.0618 15.9398 28.8973 15.9375 28.7317V26.5625H19.0625C19.2281 26.5648 19.3926 26.5342 19.5463 26.4725C19.7 26.4107 19.8399 26.319 19.9579 26.2027C20.0758 26.0864 20.1695 25.9478 20.2334 25.795C20.2974 25.6422 20.3303 25.4782 20.3303 25.3125C20.3303 25.1468 20.2974 24.9828 20.2334 24.83C20.1695 24.6772 20.0758 24.5386 19.9579 24.4223C19.8399 24.306 19.7 24.2143 19.5463 24.1525C19.3926 24.0908 19.2281 24.0602 19.0625 24.0625H15.9375V21.4819C21.2041 20.8593 25.3125 16.3672 25.3125 10.9375C25.3125 5.08428 20.5407 0.3125 14.6875 0.3125ZM14.6875 2.8125C19.1896 2.8125 22.8125 6.43538 22.8125 10.9375C22.8125 15.4396 19.1896 19.0625 14.6875 19.0625C10.1854 19.0625 6.5625 15.4396 6.5625 10.9375C6.5625 6.43538 10.1854 2.8125 14.6875 2.8125Z" fill="#FF1066"/>
</g>
</svg>
