<?xml version="1.0" encoding="UTF-8" standalone="no"?>
<svg
   width="16"
   height="16"
   viewBox="0 0 16 16"
   fill="none"
   version="1.1"
   id="svg415"
   sodipodi:docname="filter-done.svg"
   inkscape:version="1.1 (c4e8f9e, 2021-05-24)"
   xmlns:inkscape="http://www.inkscape.org/namespaces/inkscape"
   xmlns:sodipodi="http://sodipodi.sourceforge.net/DTD/sodipodi-0.dtd"
   xmlns="http://www.w3.org/2000/svg"
   xmlns:svg="http://www.w3.org/2000/svg">
  <defs
     id="defs419" />
  <sodipodi:namedview
     id="namedview417"
     pagecolor="#ffffff"
     bordercolor="#666666"
     borderopacity="1.0"
     inkscape:pageshadow="2"
     inkscape:pageopacity="0.0"
     inkscape:pagecheckerboard="0"
     showgrid="false"
     inkscape:zoom="17.259169"
     inkscape:cx="5.9388724"
     inkscape:cy="9.2994051"
     inkscape:window-width="1296"
     inkscape:window-height="797"
     inkscape:window-x="0"
     inkscape:window-y="25"
     inkscape:window-maximized="0"
     inkscape:current-layer="svg415" />
  <path
     style="color:#000000;fill:#ffffff;stroke-linecap:round;stroke-linejoin:round;-inkscape-stroke:none"
     d="m 2.6660156,0.33398438 c -0.4667095,0 -0.8395422,-0.0516948 -1.3320312,0.19921874 C 0.98929656,0.70884443 0.7088423,0.98925758 0.53320312,1.3339844 0.28198049,1.8270257 0.33398437,2.1993061 0.33398438,2.6660156 V 3.28125 c -1e-8,0.2038298 -0.0117519,0.3823927 0.0488281,0.6347656 0.0450736,0.1876891 0.12057796,0.3678591 0.22070312,0.53125 0.13571252,0.2214548 0.26807952,0.3403452 0.41210938,0.484375 l 4.2207031,4.21875 c 0.1203131,0.1203131 0.1146697,0.1174177 0.1015625,0.095703 -0.0057,-0.022663 -0.00391,-0.030818 -0.00391,0.1328125 v 3.9628907 c 0,0.714299 -0.1185583,1.219908 0.3300781,1.861328 0.2885903,0.412743 0.7367884,0.687989 1.234375,0.761719 0.7735715,0.114089 1.1714775,-0.215687 1.8105469,-0.535156 l 0.6679687,-0.333985 c 0.2684637,-0.134156 0.5065217,-0.229576 0.7656249,-0.49414 0.188315,-0.192172 0.334362,-0.426344 0.423828,-0.685547 0.121464,-0.352337 0.09961,-0.606984 0.09961,-0.90625 V 9.3847656 c 0,-0.1682973 0.0019,-0.1616884 -0.0039,-0.1386718 -0.0089,0.014814 0.02467,-0.016565 0.06836,-0.0625 l 0.002,-0.00391 a 1.0001,1.0001 0 0 0 0.03125,-0.029297 l 4.21875,-4.21875 c 0.144327,-0.1443573 0.279864,-0.2656815 0.414062,-0.484375 v -0.00195 c 0.09819,-0.1605402 0.173012,-0.3376294 0.21875,-0.5273437 a 1.0001,1.0001 0 0 0 0,-0.00195 c 0.05999,-0.2508317 0.05078,-0.4292164 0.05078,-0.6289062 V 2.6660156 c 0,-0.467138 0.0515,-0.8398233 -0.199219,-1.3320312 C 15.291753,0.99046943 15.011301,0.70914897 14.666016,0.53320312 14.172681,0.28191526 13.798731,0.33398438 13.332031,0.33398438 Z M 2.3183594,2.3183594 c -0.04007,0.025864 -0.035155,0.015625 0.3476562,0.015625 H 13.332031 c 0.381051,0 0.386012,0.00968 0.347657,-0.015625 -0.02573,-0.03976 -0.01367,-0.034789 -0.01367,0.3476562 v 0.6210938 c 0,0.1616173 -0.0014,0.1532222 0.0039,0.1328125 0.01373,-0.022608 0.01942,-0.02335 -0.101563,0.097656 l -4.2031246,4.203125 a 1.0001,1.0001 0 0 0 -0.017578,0.017578 C 9.2054647,7.8804828 9.0725953,8.0002331 8.9375,8.2207031 8.8367636,8.3850556 8.7617548,8.562701 8.7167969,8.75 8.6562322,9.0022257 8.6660156,9.1809358 8.6660156,9.3847656 v 3.6250004 c 0,0.246199 -0.00401,0.239796 0.00781,0.208984 0.023577,-0.02534 0.030168,-0.02283 -0.1914062,0.08789 a 1.0001,1.0001 0 0 0 0,0.002 l -0.6679688,0.332031 c -0.5168008,0.258348 -0.5614648,0.252762 -0.5058594,0.279297 0.048721,0.03792 0.025391,-4.35e-4 0.025391,-0.578125 V 9.3789063 C 7.3339844,9.1792064 7.3434954,9.0011427 7.2832031,8.75 7.2374493,8.5593851 7.1616248,8.3824616 7.0625,8.2207031 6.9274074,8.0002669 6.7945105,7.880448 6.6503906,7.7363281 l -4.21875,-4.21875 C 2.3122152,3.3981527 2.3174878,3.3988812 2.3300781,3.4199219 c 0.00581,0.022971 0.00391,0.029567 0.00391,-0.1386719 V 2.6660156 c 0,-0.3828108 0.010331,-0.3878101 -0.015625,-0.3476562 z"
     id="path413" />
</svg>
