<?xml version="1.0" encoding="UTF-8" standalone="no"?>
<svg
   width="16"
   height="18"
   viewBox="0 0 16 18"
   fill="none"
   version="1.1"
   id="svg361"
   sodipodi:docname="filter.svg"
   inkscape:version="1.1 (c4e8f9e, 2021-05-24)"
   xmlns:inkscape="http://www.inkscape.org/namespaces/inkscape"
   xmlns:sodipodi="http://sodipodi.sourceforge.net/DTD/sodipodi-0.dtd"
   xmlns="http://www.w3.org/2000/svg"
   xmlns:svg="http://www.w3.org/2000/svg">
  <defs
     id="defs365" />
  <sodipodi:namedview
     id="namedview363"
     pagecolor="#ffffff"
     bordercolor="#666666"
     borderopacity="1.0"
     inkscape:pageshadow="2"
     inkscape:pageopacity="0.0"
     inkscape:pagecheckerboard="0"
     showgrid="false"
     inkscape:zoom="13.264152"
     inkscape:cx="2.6009955"
     inkscape:cy="10.743242"
     inkscape:window-width="1296"
     inkscape:window-height="797"
     inkscape:window-x="0"
     inkscape:window-y="25"
     inkscape:window-maximized="0"
     inkscape:current-layer="svg361" />
  <path
     style="color:#000000;fill:#ffffff;stroke-linecap:round;stroke-linejoin:round;-inkscape-stroke:none"
     d="m 1.4589844,0.12695312 a 1,1 0 0 0 0,1.41406248 L 2.3066406,2.3886719 C 1.9915283,2.3873084 1.6935516,2.3500106 1.3339844,2.5332031 0.98929656,2.7088444 0.7088423,2.9892576 0.53320312,3.3339844 0.28198049,3.8270257 0.33398437,4.1993061 0.33398438,4.6660156 V 5.28125 c -1e-8,0.2038298 -0.0117519,0.3823927 0.0488281,0.6347656 0.0450736,0.1876891 0.12057796,0.3678591 0.22070312,0.53125 0.13571252,0.2214548 0.26807952,0.3403452 0.41210938,0.484375 l 4.2207031,4.2187504 c 0.1202585,0.120241 0.114648,0.117377 0.1015625,0.0957 -0.00567,-0.02252 -0.00391,-0.03082 -0.00391,0.132812 v 3.962891 c 0,0.714299 -0.1185583,1.219908 0.3300781,1.861328 0.2885903,0.412743 0.7364821,0.688163 1.234375,0.761719 0.773543,0.114382 1.1713655,-0.215531 1.8105469,-0.535157 l 0.6679687,-0.333984 c 0.2684637,-0.134156 0.5065217,-0.229576 0.7656249,-0.494141 0.188315,-0.192171 0.334362,-0.426343 0.423828,-0.685546 0.121464,-0.352337 0.09961,-0.606984 0.09961,-0.90625 v -3.625 c 0,-0.168355 0.0019,-0.161481 -0.0039,-0.138672 -0.0068,0.01136 0.02994,-0.02452 0.05274,-0.04883 v -0.002 a 1.0001,1.0001 0 0 0 0.04687,-0.04297 1.0001,1.0001 0 0 0 0.002,-0.002 l 0.152344,-0.152344 2.208984,2.208984 a 1,1 0 0 0 1.416016,0 1,1 0 0 0 0,-1.414062 L 11.623047,8.8769531 2.8730469,0.12695312 a 1,1 0 0 0 -1.4140625,0 z m 7.375,2.20703128 a 1,1 0 0 0 -1,1 1,1 0 0 0 1,1 h 4.4980466 c 0.381051,0 0.386044,0.00972 0.347657,-0.015625 -0.02573,-0.03976 -0.01367,-0.034789 -0.01367,0.3476562 v 0.6210938 c 0,0.1639915 -0.0018,0.1574648 0.0039,0.1347656 0.01229,-0.020543 0.01753,-0.023409 -0.101563,0.095703 l -1.27539,1.2753906 a 1,1 0 0 0 0,1.4140626 1,1 0 0 0 1.414062,0 l 1.275391,-1.2753907 c 0.144001,-0.1440309 0.279267,-0.2647081 0.414062,-0.484375 v -0.00195 c 0.09852,-0.1610901 0.173185,-0.3383474 0.21875,-0.5273438 a 1.0001,1.0001 0 0 0 0,-0.00195 c 0.05999,-0.2508317 0.05078,-0.4292164 0.05078,-0.6289062 V 4.6660156 c 0,-0.467138 0.0515,-0.8398233 -0.199219,-1.3320312 C 15.292519,2.9919731 15.012067,2.7095394 14.666016,2.5332031 14.172412,2.281778 13.798731,2.3339844 13.332031,2.3339844 Z m -6.515625,1.984375 c -0.04007,0.025863 -0.035155,0.015625 0.3476562,0.015625 H 4.25 h 0.00195 l 5.25,5.25 -0.1289062,0.1289062 a 1.0001,1.0001 0 0 0 -0.025391,0.025391 C 9.2045106,9.8814469 9.0727297,9.9999737 8.9375,10.220703 8.836783,10.384892 8.7618003,10.562577 8.7167969,10.75 c -0.060439,0.251939 -0.050781,0.430866 -0.050781,0.634766 v 3.625 c 0,0.246199 -0.00401,0.239796 0.00781,0.208984 0.023577,-0.02534 0.030168,-0.02283 -0.1914062,0.08789 a 1.0001,1.0001 0 0 0 0,0.002 l -0.6679688,0.332031 c -0.5187976,0.259427 -0.5643069,0.254739 -0.5058594,0.28125 0.049737,0.03999 0.025391,-4.4e-4 0.025391,-0.580078 v -3.962891 c 0,-0.1997 0.00944,-0.377874 -0.050781,-0.628906 C 7.2374448,10.559434 7.1618123,10.382637 7.0625,10.220703 6.9274628,10.000357 6.7945758,9.8804933 6.6503906,9.7363281 l -4.21875,-4.21875 C 2.3122152,5.3981527 2.3174878,5.3988812 2.3300781,5.4199219 c 0.00581,0.022971 0.00391,0.029567 0.00391,-0.1386719 V 4.6660156 c 0,-0.3828108 0.010331,-0.3878101 -0.015625,-0.3476562 z"
     id="path359" />
</svg>
