<?xml version="1.0" encoding="UTF-8" standalone="no"?>
<svg
   width="18"
   height="18"
   viewBox="0 0 18 18"
   fill="none"
   version="1.1"
   id="svg223"
   sodipodi:docname="loading.svg"
   inkscape:version="1.1 (c4e8f9e, 2021-05-24)"
   xmlns:inkscape="http://www.inkscape.org/namespaces/inkscape"
   xmlns:sodipodi="http://sodipodi.sourceforge.net/DTD/sodipodi-0.dtd"
   xmlns="http://www.w3.org/2000/svg"
   xmlns:svg="http://www.w3.org/2000/svg">
  <defs
     id="defs227" />
  <sodipodi:namedview
     id="namedview225"
     pagecolor="#ffffff"
     bordercolor="#666666"
     borderopacity="1.0"
     inkscape:pageshadow="2"
     inkscape:pageopacity="0.0"
     inkscape:pagecheckerboard="0"
     showgrid="false"
     inkscape:zoom="12.007704"
     inkscape:cx="13.449699"
     inkscape:cy="15.281856"
     inkscape:window-width="1296"
     inkscape:window-height="801"
     inkscape:window-x="0"
     inkscape:window-y="25"
     inkscape:window-maximized="0"
     inkscape:current-layer="svg223" />
  <path
     style="color:#000000;fill:#ffffff;stroke-linecap:round;stroke-linejoin:round;-inkscape-stroke:none"
     d="m 9,0.9375 a 0.75,0.75 0 0 0 -0.75,0.75 v 1.875 A 0.75,0.75 0 0 0 9,4.3125 0.75,0.75 0 0 0 9.75,3.5625 V 1.6875 A 0.75,0.75 0 0 0 9,0.9375 Z M 3.8457031,3.15625 a 0.75,0.75 0 0 0 -0.5292968,0.2207031 0.75,0.75 0 0 0 0,1.0605469 L 4.90625,6.0273437 a 0.75,0.75 0 0 0 1.0625,0 0.75,0.75 0 0 0 0,-1.0605468 L 4.3769531,3.3769531 A 0.75,0.75 0 0 0 3.8457031,3.15625 Z m 9.6230469,0.375 -1.0625,1.0605469 a 0.75,0.75 0 0 0 0,1.0605468 0.75,0.75 0 0 0 1.0625,0 l 1.060547,-1.0605468 a 0.75,0.75 0 0 0 0,-1.0605469 0.75,0.75 0 0 0 -1.060547,0 z M 1.6875,8.25 a 0.75,0.75 0 0 0 -0.75,0.75 0.75,0.75 0 0 0 0.75,0.75 h 2.625 A 0.75,0.75 0 0 0 5.0625,9 0.75,0.75 0 0 0 4.3125,8.25 Z m 13.125,0 a 0.75,0.75 0 0 0 -0.75,0.75 0.75,0.75 0 0 0 0.75,0.75 h 1.125 a 0.75,0.75 0 0 0 0.75,-0.75 0.75,0.75 0 0 0 -0.75,-0.75 z m -9.53125,3.40625 -2.1210937,2.123047 a 0.75,0.75 0 0 0 0,1.060547 0.75,0.75 0 0 0 1.0605468,0 L 6.34375,12.71875 a 0.75,0.75 0 0 0 0,-1.0625 0.75,0.75 0 0 0 -1.0625,0 z m 8.03125,0.90625 a 0.75,0.75 0 0 0 -0.53125,0.21875 0.75,0.75 0 0 0 0,1.0625 l 0.53125,0.529297 a 0.75,0.75 0 0 0 1.060547,0 0.75,0.75 0 0 0 0,-1.060547 L 13.84375,12.78125 A 0.75,0.75 0 0 0 13.3125,12.5625 Z M 9,12.75 A 0.75,0.75 0 0 0 8.25,13.5 v 3 A 0.75,0.75 0 0 0 9,17.25 0.75,0.75 0 0 0 9.75,16.5 v -3 A 0.75,0.75 0 0 0 9,12.75 Z"
     id="path221" />
</svg>
