<?xml version="1.0" encoding="UTF-8" standalone="no"?>
<svg
   width="24"
   height="24"
   viewBox="0 0 24 24"
   fill="none"
   version="1.1"
   id="svg588"
   sodipodi:docname="lock.svg"
   inkscape:version="1.1 (c4e8f9e, 2021-05-24)"
   xmlns:inkscape="http://www.inkscape.org/namespaces/inkscape"
   xmlns:sodipodi="http://sodipodi.sourceforge.net/DTD/sodipodi-0.dtd"
   xmlns="http://www.w3.org/2000/svg"
   xmlns:svg="http://www.w3.org/2000/svg">
  <defs
     id="defs592" />
  <sodipodi:namedview
     id="namedview590"
     pagecolor="#ffffff"
     bordercolor="#666666"
     borderopacity="1.0"
     inkscape:pageshadow="2"
     inkscape:pageopacity="0.0"
     inkscape:pagecheckerboard="0"
     showgrid="false"
     inkscape:zoom="10.146032"
     inkscape:cx="12.467928"
     inkscape:cy="11.679442"
     inkscape:window-width="1296"
     inkscape:window-height="803"
     inkscape:window-x="0"
     inkscape:window-y="25"
     inkscape:window-maximized="0"
     inkscape:current-layer="svg588" />
  <g
     id="Interface / Lock">
    <path
       style="color:#000000;fill:#ffffff;stroke-linecap:round;stroke-linejoin:round;-inkscape-stroke:none"
       d="M 12,2 C 9.8026753,2 8,3.8027291 8,6 V 8 H 7.2011719 C 6.081063,8 5.3812748,7.9477884 4.6386719,8.3261719 4.0744161,8.61366 3.61366,9.0744161 3.3261719,9.6386719 2.947762,10.381292 3,11.081073 3,12.201172 v 5.599609 c 0,1.120099 -0.052038,1.81832 0.3261719,2.560547 0.2873085,0.563859 0.7474774,1.024681 1.3125,1.3125 C 5.380812,22.052017 6.0793467,22 7.1972656,22 h 9.6054684 c 1.117899,0 1.816915,0.05178 2.558594,-0.326172 0.564306,-0.287477 1.024542,-0.747248 1.3125,-1.3125 C 21.051783,19.619649 21,18.920633 21,17.802734 v -5.605468 c 0,-1.117899 0.05201,-1.816465 -0.326172,-2.5585941 -0.288138,-0.5656493 -0.748961,-1.0253542 -1.3125,-1.3125 C 18.619382,7.9481054 17.92088,8 16.800781,8 H 16 V 6 C 16,3.8027291 14.197325,2 12,2 Z m 0,2 c 1.116472,0 2,0.8835742 2,2 V 8 H 10 V 6 c 0,-1.1164258 0.883528,-2 2,-2 z m -4.7988281,6 h 2.0292969 5.5390622 2.03125 c 1.120099,0 1.538691,0.05146 1.652344,0.109375 0.18906,0.09633 0.342238,0.248537 0.4375,0.435547 C 18.948041,10.657592 19,11.079367 19,12.197266 v 5.605468 c 0,1.117899 -0.05173,1.537271 -0.109375,1.650391 -0.09544,0.187347 -0.249207,0.341577 -0.4375,0.4375 C 18.340005,19.94827 17.920633,20 16.802734,20 H 7.1972656 C 6.0793467,20 5.6575809,19.948035 5.5449219,19.890625 5.3572853,19.795044 5.2055461,19.641866 5.109375,19.453125 5.051605,19.339753 5,18.92088 5,17.800781 v -5.599609 c 0,-1.120099 0.051805,-1.543271 0.109375,-1.65625 0.095992,-0.188404 0.2471434,-0.339556 0.4355469,-0.435547 C 5.6579581,10.051779 6.081063,10 7.2011719,10 Z"
       id="Vector" />
  </g>
</svg>
