<svg width="30" height="30" viewBox="0 0 30 30" fill="none" xmlns="http://www.w3.org/2000/svg">
<g opacity="0.5">
<path d="M18.125 2.49988C17.9594 2.49754 17.7949 2.52814 17.6412 2.58991C17.4875 2.65167 17.3476 2.74338 17.2296 2.85968C17.1117 2.97599 17.018 3.11458 16.9541 3.2674C16.8901 3.42022 16.8572 3.58422 16.8572 3.74988C16.8572 3.91554 16.8901 4.07954 16.9541 4.23236C17.018 4.38518 17.1117 4.52378 17.2296 4.64008C17.3476 4.75639 17.4875 4.84809 17.6412 4.90985C17.7949 4.97162 17.9594 5.00222 18.125 4.99988H23.7549L18.6938 10.0597C16.8931 8.65737 14.6384 7.81238 12.1875 7.81238C6.33428 7.81238 1.5625 12.5842 1.5625 18.4374C1.5625 24.2906 6.33428 29.0624 12.1875 29.0624C18.0407 29.0624 22.8125 24.2906 22.8125 18.4374C22.8125 15.9337 21.9346 13.6317 20.4773 11.8126L25.625 6.66492V12.4999C25.6227 12.6655 25.6533 12.83 25.715 12.9837C25.7768 13.1374 25.8685 13.2773 25.9848 13.3953C26.1011 13.5132 26.2397 13.6069 26.3925 13.6708C26.5453 13.7348 26.7093 13.7677 26.875 13.7677C27.0407 13.7677 27.2047 13.7348 27.3575 13.6708C27.5103 13.6069 27.6489 13.5132 27.7652 13.3953C27.8815 13.2773 27.9732 13.1374 28.035 12.9837C28.0967 12.83 28.1273 12.6655 28.125 12.4999V3.74988C28.125 3.41837 27.9933 3.10045 27.7588 2.86603C27.5244 2.63162 27.2065 2.49991 26.875 2.49988H18.125ZM12.1875 10.3124C16.6896 10.3124 20.3125 13.9353 20.3125 18.4374C20.3125 22.9395 16.6896 26.5624 12.1875 26.5624C7.68538 26.5624 4.0625 22.9395 4.0625 18.4374C4.0625 13.9353 7.68538 10.3124 12.1875 10.3124Z" fill="#1089FF"/>
</g>
</svg>
