<?xml version="1.0" encoding="UTF-8" standalone="no"?>
<svg
   width="16"
   height="8"
   viewBox="0 0 16 8"
   fill="none"
   version="1.1"
   id="svg486"
   sodipodi:docname="menu-open.svg"
   inkscape:version="1.1 (c4e8f9e, 2021-05-24)"
   xmlns:inkscape="http://www.inkscape.org/namespaces/inkscape"
   xmlns:sodipodi="http://sodipodi.sourceforge.net/DTD/sodipodi-0.dtd"
   xmlns="http://www.w3.org/2000/svg"
   xmlns:svg="http://www.w3.org/2000/svg">
  <defs
     id="defs490" />
  <sodipodi:namedview
     id="namedview488"
     pagecolor="#ffffff"
     bordercolor="#666666"
     borderopacity="1.0"
     inkscape:pageshadow="2"
     inkscape:pageopacity="0.0"
     inkscape:pagecheckerboard="0"
     showgrid="false"
     inkscape:zoom="17.050142"
     inkscape:cx="3.1378038"
     inkscape:cy="9.0321828"
     inkscape:window-width="1296"
     inkscape:window-height="796"
     inkscape:window-x="0"
     inkscape:window-y="25"
     inkscape:window-maximized="0"
     inkscape:current-layer="svg486" />
  <path
     style="color:#000000;fill:#ffffff;stroke-linecap:round;stroke-linejoin:round;-inkscape-stroke:none"
     d="M 1,0 A 1,1 0 0 0 0,1 1,1 0 0 0 1,2 H 15 A 1,1 0 0 0 16,1 1,1 0 0 0 15,0 Z M 1,6 A 1,1 0 0 0 0,7 1,1 0 0 0 1,8 H 15 A 1,1 0 0 0 16,7 1,1 0 0 0 15,6 Z"
     id="path484" />
</svg>
