<?xml version="1.0" encoding="UTF-8" standalone="no"?>
<svg
   width="16"
   height="18"
   viewBox="0 0 16 18"
   fill="none"
   version="1.1"
   id="svg43"
   sodipodi:docname="refresh.svg"
   inkscape:version="1.1 (c4e8f9e, 2021-05-24)"
   xmlns:inkscape="http://www.inkscape.org/namespaces/inkscape"
   xmlns:sodipodi="http://sodipodi.sourceforge.net/DTD/sodipodi-0.dtd"
   xmlns="http://www.w3.org/2000/svg"
   xmlns:svg="http://www.w3.org/2000/svg">
  <defs
     id="defs47" />
  <sodipodi:namedview
     id="namedview45"
     pagecolor="#ffffff"
     bordercolor="#666666"
     borderopacity="1.0"
     inkscape:pageshadow="2"
     inkscape:pageopacity="0.0"
     inkscape:pagecheckerboard="0"
     showgrid="false"
     inkscape:zoom="11.644198"
     inkscape:cx="5.0239611"
     inkscape:cy="13.568989"
     inkscape:window-width="1312"
     inkscape:window-height="798"
     inkscape:window-x="0"
     inkscape:window-y="25"
     inkscape:window-maximized="0"
     inkscape:current-layer="svg43" />
  <path
     style="color:#000000;fill:#727c89;stroke-linecap:round;stroke-linejoin:round;-inkscape-stroke:none"
     d="m 13.833984,0.5 a 1,1 0 0 0 -1,1 V 3.125 C 12.436178,2.7975561 12.041833,2.4636237 11.582031,2.2207031 10.314036,1.5507511 8.8836991,1.2509786 7.453125,1.3535156 6.0224461,1.4560717 4.6481124,1.9565619 3.4882813,2.8007813 2.3286463,3.6448494 1.4298679,4.7990384 0.89257813,6.1289062 A 1,1 0 0 0 1.4453125,7.4296875 1,1 0 0 0 2.7460938,6.8769531 C 3.143263,5.8939033 3.8087926,5.0419191 4.6660156,4.4179687 5.5230224,3.7941696 6.5382245,3.42346 7.5957031,3.3476563 c 1.0575834,-0.075803 2.1151323,0.1471912 3.0527349,0.6425781 0.293043,0.1548196 0.44372,0.4740737 0.703125,0.6757812 H 9.6660156 a 1,1 0 0 0 -1,1 1,1 0 0 0 1,1 h 4.1679684 a 1.0001,1.0001 0 0 0 0.212891,-0.2128906 1,1 0 0 0 0.21875,0.058594 1,1 0 0 0 0.470703,-0.7480468 1.0001,1.0001 0 0 0 0.09766,-0.097656 V 1.5 a 1,1 0 0 0 -1,-1 z m 0.722657,10.070313 a 1,1 0 0 0 -1.302735,0.552734 c -0.397242,0.983032 -1.060779,1.835048 -1.917968,2.458984 -0.857086,0.623861 -1.8719359,0.994472 -2.929688,1.070313 -1.0575227,0.07582 -2.1153291,-0.14736 -3.0527344,-0.642578 -0.2930921,-0.154865 -0.4436135,-0.474058 -0.703125,-0.675782 h 1.6835938 a 1,1 0 0 0 1,-1 1,1 0 0 0 -1,-1 H 2.1660156 a 1.0001,1.0001 0 0 0 -0.1113281,0.111329 1,1 0 0 0 -0.3183594,0.04297 1,1 0 0 0 -0.099609,0.375 1.0001,1.0001 0 0 0 -0.4707031,0.470703 V 16.5 a 1,1 0 0 0 1,1 1,1 0 0 0 1,-1 v -1.625 c 0.3978827,0.327376 0.7922805,0.661414 1.2519531,0.904297 1.2682126,0.66998 2.7002246,0.969763 4.1308594,0.867187 1.4304054,-0.102559 2.8031779,-0.603127 3.9628909,-1.447265 1.159608,-0.844063 2.060299,-1.996407 2.597656,-3.326172 a 1,1 0 0 0 -0.552734,-1.302734 z"
     id="path41" />
</svg>
