<?xml version="1.0" encoding="UTF-8" standalone="no"?>
<svg
   width="28"
   height="28"
   viewBox="0 0 28 28"
   fill="none"
   version="1.1"
   id="svg351"
   sodipodi:docname="remove-bg.svg"
   inkscape:version="1.1 (c4e8f9e, 2021-05-24)"
   xmlns:inkscape="http://www.inkscape.org/namespaces/inkscape"
   xmlns:sodipodi="http://sodipodi.sourceforge.net/DTD/sodipodi-0.dtd"
   xmlns="http://www.w3.org/2000/svg"
   xmlns:svg="http://www.w3.org/2000/svg">
  <defs
     id="defs355" />
  <sodipodi:namedview
     id="namedview353"
     pagecolor="#ffffff"
     bordercolor="#666666"
     borderopacity="1.0"
     inkscape:pageshadow="2"
     inkscape:pageopacity="0.0"
     inkscape:pagecheckerboard="0"
     showgrid="false"
     inkscape:zoom="3.1492438"
     inkscape:cx="-25.561692"
     inkscape:cy="11.113779"
     inkscape:window-width="1296"
     inkscape:window-height="802"
     inkscape:window-x="0"
     inkscape:window-y="25"
     inkscape:window-maximized="0"
     inkscape:current-layer="svg351" />
  <path
     style="color:#000000;fill:#727c89;-inkscape-stroke:none"
     d="m 9.76714,13.9323 0.56116,0.5612 z M 8,16.4314 H 7.2064 Z m 4.2662,4.2663 v 0.7936 z M 13.9323,9.76714 13.3712,9.20597 v 0 z m 1.1049,8.89156 c 0.31,0.3099 0.8124,0.3099 1.1224,0 0.3099,-0.31 0.3099,-0.8124 0,-1.1224 z m -3.8759,-6.1206 c -0.3099,-0.3099 -0.8124,-0.3099 -1.1223,0 -0.30991,0.3099 -0.30991,0.8124 0,1.1223 z m 7.2081,1.6661 -4.1652,4.1652 1.1223,1.1223 4.1652,-4.1652 z m -8.0411,0.2893 4.1652,-4.1652 -1.1223,-1.12233 -4.16523,4.16523 z m 0,3.8759 C 9.72339,17.7645 9.32735,17.366 9.07272,17.0323 8.83205,16.7169 8.7936,16.5541 8.7936,16.4314 H 7.2064 c 0,0.6093 0.25607,1.1071 0.60445,1.5637 0.33441,0.4383 0.82194,0.9234 1.39512,1.4966 z M 9.20597,13.3712 C 8.63279,13.9443 8.14526,14.4295 7.81085,14.8678 7.46247,15.3244 7.2064,15.8222 7.2064,16.4314 h 1.5872 c 0,-0.1227 0.03845,-0.2854 0.27912,-0.6008 0.25463,-0.3338 0.65067,-0.7322 1.25558,-1.3371 z m 4.99823,4.9982 c -0.6049,0.6049 -1.0033,1.0009 -1.3371,1.2556 -0.3154,0.2406 -0.4782,0.2791 -0.6009,0.2791 v 1.5872 c 0.6093,0 1.1071,-0.2561 1.5637,-0.6045 0.4383,-0.3344 0.9234,-0.8219 1.4966,-1.3951 z m -4.99823,1.1223 c 0.57319,0.5732 1.05833,1.0607 1.49663,1.3951 0.4566,0.3484 0.9544,0.6045 1.5636,0.6045 v -1.5872 c -0.1227,0 -0.2854,-0.0385 -0.6008,-0.2791 -0.3338,-0.2547 -0.7322,-0.6507 -1.3371,-1.2556 z m 9.16343,-9.1634 c 0.6049,0.6049 1.0009,1.0033 1.2556,1.3371 0.2406,0.3154 0.2791,0.4781 0.2791,0.6008 h 1.5872 c 0,-0.6092 -0.2561,-1.107 -0.6045,-1.5636 -0.3344,-0.4383 -0.8219,-0.92344 -1.3951,-1.49663 z m 1.1223,4.9982 c 0.5732,-0.5732 1.0607,-1.0583 1.3951,-1.4966 0.3484,-0.4566 0.6045,-0.9544 0.6045,-1.5637 h -1.5872 c 0,0.1227 -0.0385,0.2855 -0.2791,0.6009 -0.2547,0.3338 -0.6507,0.7322 -1.2556,1.3371 z m 0,-6.12053 C 18.9185,8.63279 18.4334,8.14526 17.9951,7.81085 17.5385,7.46247 17.0407,7.2064 16.4314,7.2064 v 1.5872 c 0.1227,0 0.2855,0.03845 0.6009,0.27912 0.3337,0.25463 0.7322,0.65067 1.3371,1.25558 z M 14.4935,10.3283 C 15.0984,9.72339 15.4968,9.32735 15.8306,9.07272 16.146,8.83205 16.3087,8.7936 16.4314,8.7936 V 7.2064 c -0.6092,0 -1.107,0.25607 -1.5636,0.60445 -0.4383,0.33441 -0.9235,0.82194 -1.4966,1.39512 z m 1.6661,7.208 -4.9983,-4.9982 -1.1223,1.1223 4.9982,4.9983 z"
     id="path347" />
  <path
     style="color:#000000;fill:#727c89;-inkscape-stroke:none"
     d="m 13.582031,2.2070313 c -2.494057,0 -4.3814757,-0.00657 -5.9121091,0.1992187 C 6.1392885,2.6120383 4.9136152,3.0629473 3.9882813,3.9882813 3.0629473,4.9136152 2.6120383,6.1392885 2.40625,7.6699219 2.2004617,9.2005553 2.2070313,11.087974 2.2070313,13.582031 c 0,2.494048 -0.00657,4.379517 0.1992187,5.910156 0.2057882,1.53064 0.6566934,2.756309 1.5820313,3.681641 0.9253344,0.925329 2.1510077,1.376244 3.6816406,1.582031 1.5306328,0.205787 3.4180521,0.201172 5.9121091,0.201172 2.494048,0 4.379518,0.0046 5.910156,-0.201172 1.530639,-0.205786 2.756309,-0.656699 3.681641,-1.582031 0.925332,-0.925332 1.376245,-2.151002 1.582031,-3.681641 0.205787,-1.530638 0.201172,-3.416108 0.201172,-5.910156 0,-2.494057 0.0046,-4.3814763 -0.201172,-5.9121091 C 24.550072,6.139289 24.099157,4.9136157 23.173828,3.9882813 22.248496,3.0629434 21.022827,2.6120382 19.492187,2.40625 17.961548,2.2004618 16.076079,2.2070313 13.582031,2.2070313 Z m 0,1.5859375 c 2.494048,0 4.348386,0.00589 5.699219,0.1875 1.350833,0.1816139 2.147218,0.5065887 2.771484,1.1308593 0.62427,0.6242741 0.947294,1.4187045 1.128907,2.7695313 0.181612,1.3508267 0.1875,3.2071146 0.1875,5.7011716 0,2.494048 -0.0059,4.348385 -0.1875,5.699219 -0.181613,1.350834 -0.50464,2.147218 -1.128907,2.771484 -0.624266,0.624267 -1.42065,0.947294 -2.771484,1.128907 -1.350834,0.181612 -3.205171,0.1875 -5.699219,0.1875 -2.494057,0 -4.3503449,-0.0059 -5.7011716,-0.1875 C 6.5300326,23.000028 5.7356022,22.677004 5.1113281,22.052734 4.4870575,21.428468 4.1620827,20.632083 3.9804688,19.28125 c -0.181614,-1.350833 -0.1875001,-3.205171 -0.1875,-5.699219 0,-2.494057 0.00589,-4.3503454 0.1875,-5.7011716 C 4.1620826,6.5300332 4.4870536,5.7356026 5.1113281,5.1113281 5.7356026,4.4870536 6.5300332,4.1620826 7.8808594,3.9804688 c 1.3508262,-0.1816139 3.2071146,-0.1875 5.7011716,-0.1875 z"
     id="path349" />
</svg>
