<svg width="21" height="21" viewBox="0 0 21 21" fill="none" xmlns="http://www.w3.org/2000/svg">
<path d="M19.7789 10.5233C19.7789 15.0126 19.7789 17.2572 18.3843 18.6519C16.9896 20.0465 14.745 20.0465 10.2557 20.0465C5.76637 20.0465 3.52172 20.0465 2.12707 18.6519C0.732422 17.2572 0.732422 15.0126 0.732422 10.5233C0.732422 6.03395 0.732422 3.7893 2.12707 2.39465C3.52172 1 5.76637 1 10.2557 1" stroke="#727C89" stroke-width="1.42849" stroke-linecap="round"/>
<path d="M0.732422 10.9991L2.4005 9.5395C3.26833 8.78016 4.57627 8.82371 5.39166 9.6391L9.47688 13.7243C10.1313 14.3788 11.1616 14.468 11.9188 13.9358L12.2028 13.7363C13.2925 12.9704 14.7668 13.0592 15.7568 13.9501L18.8266 16.713" stroke="#727C89" stroke-width="1.42849" stroke-linecap="round"/>
<path d="M13.1113 4.33314H16.4445M16.4445 4.33314H19.7776M16.4445 4.33314V7.66628M16.4445 4.33314V1" stroke="#727C89" stroke-width="1.42849" stroke-linecap="round"/>
</svg>
