<?xml version="1.0" encoding="UTF-8" standalone="no"?>
<svg
   width="21"
   height="21"
   viewBox="0 0 21 21"
   fill="none"
   version="1.1"
   id="svg234"
   sodipodi:docname="replace.svg"
   inkscape:version="1.1 (c4e8f9e, 2021-05-24)"
   xmlns:inkscape="http://www.inkscape.org/namespaces/inkscape"
   xmlns:sodipodi="http://sodipodi.sourceforge.net/DTD/sodipodi-0.dtd"
   xmlns="http://www.w3.org/2000/svg"
   xmlns:svg="http://www.w3.org/2000/svg">
  <defs
     id="defs238" />
  <sodipodi:namedview
     id="namedview236"
     pagecolor="#ffffff"
     bordercolor="#666666"
     borderopacity="1.0"
     inkscape:pageshadow="2"
     inkscape:pageopacity="0.0"
     inkscape:pagecheckerboard="0"
     showgrid="false"
     inkscape:zoom="15.520738"
     inkscape:cx="11.114162"
     inkscape:cy="13.079275"
     inkscape:window-width="1296"
     inkscape:window-height="798"
     inkscape:window-x="0"
     inkscape:window-y="25"
     inkscape:window-maximized="0"
     inkscape:current-layer="svg234" />
  <path
     style="color:#000000;fill:#f0f0f0;stroke-linecap:round;-inkscape-stroke:none"
     d="m 10.255859,0.28515625 c -2.2446624,0 -3.9427401,-0.003569 -5.3203121,0.18164063 C 3.5579748,0.65200646 2.4538945,1.0558711 1.6210937,1.8886719 0.78829405,2.7214728 0.38442802,3.8255506 0.19921875,5.203125 0.01400948,6.5806994 0.01757813,8.2787647 0.01757813,10.523438 c 0,2.244647 -0.0035688,3.94275 0.18164062,5.320312 0.18520942,1.377562 0.58908561,2.47968 1.42187495,3.3125 0.8328033,0.832773 1.9368839,1.238626 3.3144532,1.423828 1.3775693,0.185203 3.0756497,0.181641 5.3203121,0.181641 2.244648,0 3.942753,0.0036 5.320313,-0.181641 1.377559,-0.185203 2.479677,-0.591065 3.3125,-1.423828 0.832763,-0.832823 1.238625,-1.93494 1.423828,-3.3125 0.185203,-1.37756 0.179687,-3.075665 0.179687,-5.320312 a 0.71424502,0.71424502 0 0 0 -0.71289,-0.7148442 0.71424502,0.71424502 0 0 0 -0.714844,0.7148442 c 0,2.244647 -0.0045,3.913168 -0.167969,5.128906 -0.163447,1.215738 -0.455742,1.932265 -1.017578,2.49414 -0.561876,0.561836 -1.278403,0.854132 -2.49414,1.017578 -1.215738,0.163447 -2.884259,0.167969 -5.128907,0.167969 -2.2446624,0 -3.9131578,-0.0045 -5.1289059,-0.167969 C 3.911205,19.000615 3.1946579,18.70831 2.6328125,18.146484 2.0709553,17.584606 1.7786866,16.868079 1.6152344,15.652344 1.4517821,14.436609 1.4472656,12.768085 1.4472656,10.523438 c 0,-2.2446733 0.00452,-3.9131587 0.1679688,-5.1289068 C 1.7786868,4.1787832 2.0709656,3.4622383 2.6328125,2.9003906 3.1946603,2.3385428 3.9112078,2.0462651 5.1269531,1.8828125 6.3426985,1.7193599 8.0111966,1.7148437 10.255859,1.7148437 A 0.71424502,0.71424502 0 0 0 10.970703,1 0.71424502,0.71424502 0 0 0 10.255859,0.28515625 Z"
     id="path228" />
  <path
     style="color:#000000;fill:#f0f0f0;stroke-linecap:round;-inkscape-stroke:none"
     d="M 3.9394531,8.2890625 C 3.2255832,8.2652922 2.5025208,8.5007314 1.9296875,9.0019531 L 0.26171875,10.460938 a 0.71424502,0.71424502 0 0 0 -0.0664063,1.007812 0.71424502,0.71424502 0 0 0 1.0078125,0.06836 l 1.6679688,-1.460937 c 0.5899916,-0.5162352 1.4612873,-0.4859784 2.0156249,0.06836 l 4.0859376,4.083985 c 0.8965045,0.896614 2.3201337,1.020076 3.3574217,0.291015 l 0.283203,-0.199218 c 0.820496,-0.576689 1.920563,-0.510677 2.666016,0.160156 l 3.070312,2.763672 a 0.71424502,0.71424502 0 0 0 1.007813,-0.05273 0.71424502,0.71424502 0 0 0 -0.05273,-1.009765 L 16.234375,13.419922 C 14.99983,12.308956 13.151871,12.197234 11.792969,13.152344 l -0.285156,0.199219 C 11.030702,13.686901 10.394756,13.631135 9.9824219,13.21875 L 5.8964844,9.1347656 C 5.358264,8.5965453 4.653323,8.3128328 3.9394531,8.2890625 Z"
     id="path230" />
  <path
     style="color:#000000;fill:#f0f0f0;stroke-linecap:round;-inkscape-stroke:none"
     d="M 16.445312,0.28515625 A 0.71424502,0.71424502 0 0 0 15.730469,1 v 2.6191406 h -2.619141 a 0.71424502,0.71424502 0 0 0 -0.714844,0.7148438 0.71424502,0.71424502 0 0 0 0.714844,0.7128906 h 2.619141 v 2.6191406 a 0.71424502,0.71424502 0 0 0 0.714843,0.7148438 0.71424502,0.71424502 0 0 0 0.712891,-0.7148438 V 5.046875 h 2.619141 A 0.71424502,0.71424502 0 0 0 20.492187,4.3339844 0.71424502,0.71424502 0 0 0 19.777344,3.6191406 H 17.158203 V 1 A 0.71424502,0.71424502 0 0 0 16.445312,0.28515625 Z"
     id="path232" />
</svg>
