<svg width="26" height="26" viewBox="0 0 26 26" fill="none" xmlns="http://www.w3.org/2000/svg">
<path fill-rule="evenodd" clip-rule="evenodd" d="M4.66394 13.5409C5.13325 13.5409 5.51371 13.9214 5.51371 14.3907V19.206H10.3291C10.7984 19.206 11.1788 19.5865 11.1788 20.0558C11.1788 20.5251 10.7984 20.9056 10.3291 20.9056H4.66394C4.19462 20.9056 3.81417 20.5251 3.81417 20.0558V14.3907C3.81417 13.9214 4.19462 13.5409 4.66394 13.5409Z" fill="#727C89"/>
<path fill-rule="evenodd" clip-rule="evenodd" d="M15.1444 3.0604C15.1444 2.59108 15.5249 2.21063 15.9942 2.21063H21.6593C22.1286 2.21063 22.5091 2.59108 22.5091 3.0604V8.72554C22.5091 9.19485 22.1286 9.57531 21.6593 9.57531C21.19 9.57531 20.8096 9.19485 20.8096 8.72554V3.91017H15.9942C15.5249 3.91017 15.1444 3.52972 15.1444 3.0604Z" fill="#727C89"/>
<path fill-rule="evenodd" clip-rule="evenodd" d="M22.2602 2.45952C22.5921 2.79138 22.5921 3.32942 22.2602 3.66128L15.6509 10.2706C15.319 10.6025 14.781 10.6025 14.4491 10.2706C14.1173 9.93875 14.1173 9.4007 14.4491 9.06885L21.0584 2.45952C21.3903 2.12767 21.9283 2.12767 22.2602 2.45952Z" fill="#727C89"/>
<path fill-rule="evenodd" clip-rule="evenodd" d="M12.3462 12.3735C12.6781 12.7054 12.6781 13.2434 12.3462 13.5753L5.26482 20.6567C4.93296 20.9885 4.39492 20.9885 4.06306 20.6567C3.7312 20.3248 3.7312 19.7868 4.06306 19.4549L11.1445 12.3735C11.4763 12.0417 12.0144 12.0417 12.3462 12.3735Z" fill="#727C89"/>
<path d="M5.60811 3.0604C5.60811 3.58186 5.18538 4.00459 4.66392 4.00459C4.14245 4.00459 3.71973 3.58186 3.71973 3.0604C3.71973 2.53894 4.14245 2.11621 4.66392 2.11621C5.18538 2.11621 5.60811 2.53894 5.60811 3.0604Z" fill="#727C89"/>
<path d="M22.6035 20.0558C22.6035 20.5773 22.1808 21 21.6593 21C21.1379 21 20.7151 20.5773 20.7151 20.0558C20.7151 19.5343 21.1379 19.1116 21.6593 19.1116C22.1808 19.1116 22.6035 19.5343 22.6035 20.0558Z" fill="#727C89"/>
</svg>
