<?xml version="1.0" encoding="UTF-8" standalone="no"?>
<svg
   width="26"
   height="26"
   viewBox="0 0 26 26"
   fill="none"
   version="1.1"
   id="svg503"
   sodipodi:docname="upscale.svg"
   inkscape:version="1.1 (c4e8f9e, 2021-05-24)"
   xmlns:inkscape="http://www.inkscape.org/namespaces/inkscape"
   xmlns:sodipodi="http://sodipodi.sourceforge.net/DTD/sodipodi-0.dtd"
   xmlns="http://www.w3.org/2000/svg"
   xmlns:svg="http://www.w3.org/2000/svg">
  <defs
     id="defs507" />
  <sodipodi:namedview
     id="namedview505"
     pagecolor="#ffffff"
     bordercolor="#666666"
     borderopacity="1.0"
     inkscape:pageshadow="2"
     inkscape:pageopacity="0.0"
     inkscape:pagecheckerboard="0"
     showgrid="false"
     inkscape:zoom="12.459905"
     inkscape:cx="13.202348"
     inkscape:cy="11.8781"
     inkscape:window-width="1296"
     inkscape:window-height="800"
     inkscape:window-x="0"
     inkscape:window-y="25"
     inkscape:window-maximized="0"
     inkscape:current-layer="svg503" />
  <path
     style="color:#000000;clip-rule:evenodd;fill:#727c89;fill-rule:evenodd;-inkscape-stroke:none"
     d="m 4.66394,13.5409 c 0.46931,0 0.84977,0.3805 0.84977,0.8498 v 4.8153 h 4.81539 c 0.4693,0 0.8497,0.3805 0.8497,0.8498 0,0.4693 -0.3804,0.8498 -0.8497,0.8498 H 4.66394 c -0.46932,0 -0.84977,-0.3805 -0.84977,-0.8498 v -5.6651 c 0,-0.4693 0.38045,-0.8498 0.84977,-0.8498 z"
     id="path491" />
  <path
     style="color:#000000;clip-rule:evenodd;fill:#727c89;fill-rule:evenodd;-inkscape-stroke:none"
     d="m 15.1444,3.0604 c 0,-0.46932 0.3805,-0.84977 0.8498,-0.84977 h 5.6651 c 0.4693,0 0.8498,0.38045 0.8498,0.84977 v 5.66514 c 0,0.46931 -0.3805,0.84977 -0.8498,0.84977 -0.4693,0 -0.8497,-0.38046 -0.8497,-0.84977 V 3.91017 h -4.8154 c -0.4693,0 -0.8498,-0.38045 -0.8498,-0.84977 z"
     id="path493" />
  <path
     style="color:#000000;clip-rule:evenodd;fill:#727c89;fill-rule:evenodd;-inkscape-stroke:none"
     d="m 22.2602,2.45952 c 0.3319,0.33186 0.3319,0.8699 0,1.20176 l -6.6093,6.60932 c -0.3319,0.3319 -0.8699,0.3319 -1.2018,0 -0.3318,-0.33185 -0.3318,-0.8699 0,-1.20175 l 6.6093,-6.60933 c 0.3319,-0.33185 0.8699,-0.33185 1.2018,0 z"
     id="path495" />
  <path
     style="color:#000000;clip-rule:evenodd;fill:#727c89;fill-rule:evenodd;-inkscape-stroke:none"
     d="m 12.3462,12.3735 c 0.3319,0.3319 0.3319,0.8699 0,1.2018 l -7.08138,7.0814 c -0.33186,0.3318 -0.8699,0.3318 -1.20176,0 -0.33186,-0.3319 -0.33186,-0.8699 0,-1.2018 l 7.08144,-7.0814 c 0.3318,-0.3318 0.8699,-0.3318 1.2017,0 z"
     id="path497" />
  <path
     style="color:#000000;fill:#727c89;-inkscape-stroke:none"
     d="m 5.60811,3.0604 c 0,0.52146 -0.42273,0.94419 -0.94419,0.94419 -0.52147,0 -0.94419,-0.42273 -0.94419,-0.94419 0,-0.52146 0.42272,-0.94419 0.94419,-0.94419 0.52146,0 0.94419,0.42273 0.94419,0.94419 z"
     id="path499" />
  <path
     style="color:#000000;fill:#727c89;-inkscape-stroke:none"
     d="m 22.6035,20.0558 c 0,0.5215 -0.4227,0.9442 -0.9442,0.9442 -0.5214,0 -0.9442,-0.4227 -0.9442,-0.9442 0,-0.5215 0.4228,-0.9442 0.9442,-0.9442 0.5215,0 0.9442,0.4227 0.9442,0.9442 z"
     id="path501" />
</svg>
