<?xml version="1.0" encoding="UTF-8" standalone="no"?>
<svg
   width="20"
   height="19"
   viewBox="0 0 20 19"
   fill="none"
   version="1.1"
   id="svg378"
   sodipodi:docname="user.svg"
   inkscape:version="1.1 (c4e8f9e, 2021-05-24)"
   xmlns:inkscape="http://www.inkscape.org/namespaces/inkscape"
   xmlns:sodipodi="http://sodipodi.sourceforge.net/DTD/sodipodi-0.dtd"
   xmlns="http://www.w3.org/2000/svg"
   xmlns:svg="http://www.w3.org/2000/svg">
  <defs
     id="defs382" />
  <sodipodi:namedview
     id="namedview380"
     pagecolor="#ffffff"
     bordercolor="#666666"
     borderopacity="1.0"
     inkscape:pageshadow="2"
     inkscape:pageopacity="0.0"
     inkscape:pagecheckerboard="0"
     showgrid="false"
     inkscape:zoom="7.2421429"
     inkscape:cx="-12.358221"
     inkscape:cy="9.9418088"
     inkscape:window-width="1296"
     inkscape:window-height="796"
     inkscape:window-x="0"
     inkscape:window-y="25"
     inkscape:window-maximized="0"
     inkscape:current-layer="svg378" />
  <path
     style="color:#000000;fill:#ffffff;stroke-linecap:round;stroke-linejoin:round;-inkscape-stroke:none"
     d="M 10,0 C 6.9742822,0 4.5,2.4742822 4.5,5.5 4.5,8.5257178 6.9742822,11 10,11 13.025733,11 15.5,8.5257124 15.5,5.5 15.5,2.4742876 13.025733,0 10,0 Z m 0,2 c 1.944862,0 3.5,1.5551574 3.5,3.5 C 13.5,7.4448426 11.944862,9 10,9 8.0551627,9 6.5,7.4448373 6.5,5.5 6.5,3.5551627 8.0551627,2 10,2 Z m 0,11 c -3.7835781,0 -7.2231045,1.657149 -9.72851562,4.314453 a 1,1 0 0 0 0.0429687,1.414063 1,1 0 0 0 1.41406247,-0.04297 C 3.8946798,16.388056 6.7976251,15 10,15 c 3.202397,0 6.105306,1.388052 8.271484,3.685547 a 1,1 0 0 0 1.414063,0.04297 1,1 0 0 0 0.04297,-1.414063 C 17.223098,14.657153 13.783596,13 10,13 Z"
     id="path376" />
</svg>
