<?xml version="1.0" encoding="UTF-8" standalone="no"?>
<svg
   width="25"
   height="25"
   viewBox="0 0 25 25"
   fill="none"
   version="1.1"
   id="svg177"
   sodipodi:docname="magic-pen.svg"
   inkscape:version="1.1 (c4e8f9e, 2021-05-24)"
   xmlns:inkscape="http://www.inkscape.org/namespaces/inkscape"
   xmlns:sodipodi="http://sodipodi.sourceforge.net/DTD/sodipodi-0.dtd"
   xmlns="http://www.w3.org/2000/svg"
   xmlns:svg="http://www.w3.org/2000/svg">
  <sodipodi:namedview
     id="namedview179"
     pagecolor="#ffffff"
     bordercolor="#666666"
     borderopacity="1.0"
     inkscape:pageshadow="2"
     inkscape:pageopacity="0.0"
     inkscape:pagecheckerboard="0"
     showgrid="false"
     inkscape:zoom="14.039522"
     inkscape:cx="12.642881"
     inkscape:cy="13.640066"
     inkscape:window-width="1312"
     inkscape:window-height="795"
     inkscape:window-x="0"
     inkscape:window-y="25"
     inkscape:window-maximized="0"
     inkscape:current-layer="svg177" />
  <path
     style="color:#000000;clip-rule:evenodd;fill:url(#paint0_linear_2002_2406);fill-rule:evenodd;-inkscape-stroke:none"
     d="m 17.8206,5.55412 c 1.036,-0.10324 1.9121,0.75781 1.8268,1.79541 l -0.5135,6.24927 c -0.1693,2.0591 -1.5873,3.8023 -3.5689,4.3871 l -2.8731,0.8479 -1.7193,1.7494 c -0.9681,0.9849 -2.55134,0.9987 -3.53632,0.0306 L 4.76983,17.9932 C 3.78485,17.0251 3.77113,15.4418 4.73919,14.4569 L 6.45871,12.7073 7.25659,9.82026 C 7.80696,7.8288 9.52528,6.38076 11.5812,6.17589 Z M 7.21473,14.3164 11.0702,18.1056 9.7836,19.4146 C 9.46091,19.7429 8.93316,19.7475 8.60483,19.4248 L 5.93838,16.8042 C 5.61005,16.4815 5.60548,15.9537 5.92817,15.6254 Z m 9.47137,-6.97388 -3.24,3.29668 c -0.138,-0.0357 -0.283,-0.054 -0.4323,-0.0527 -0.9207,0.0079 -1.6606,0.7608 -1.6526,1.6814 0.008,0.9207 0.7608,1.6606 1.6815,1.6526 0.9207,-0.008 1.6605,-0.7608 1.6526,-1.6815 -0.0013,-0.1493 -0.0222,-0.2939 -0.0602,-0.4313 l 3.2445,-3.30125 -0.4072,4.95575 c -0.1128,1.3728 -1.0582,2.5349 -2.3793,2.9248 L 12.4834,17.1571 8.13864,12.887 8.86344,10.2643 C 9.23036,8.9367 10.3759,7.97134 11.7465,7.83476 Z"
     id="path119" />
  <path
     style="color:#000000;fill:url(#paint1_linear_2002_2406);-inkscape-stroke:none"
     d="m 20.1737,17.7566 c 0.083,-0.3421 0.5696,-0.3421 0.6526,0 l 0.2283,0.9416 c 0.0296,0.1222 0.125,0.2176 0.2472,0.2472 l 0.9416,0.2283 c 0.3421,0.083 0.3421,0.5696 0,0.6526 l -0.9416,0.2283 c -0.1222,0.0296 -0.2176,0.125 -0.2472,0.2472 l -0.2283,0.9416 c -0.083,0.3421 -0.5696,0.3421 -0.6526,0 l -0.2283,-0.9416 c -0.0296,-0.1222 -0.125,-0.2176 -0.2472,-0.2472 l -0.9416,-0.2283 c -0.3421,-0.083 -0.3421,-0.5696 0,-0.6526 l 0.9416,-0.2283 c 0.1222,-0.0296 0.2176,-0.125 0.2472,-0.2472 z"
     id="path121" />
  <path
     style="color:#000000;clip-rule:evenodd;fill:url(#paint2_linear_2002_2406);fill-rule:evenodd;-inkscape-stroke:none"
     d="m 20.5,18.1207 -0.1631,0.6724 c -0.0651,0.2688 -0.275,0.4787 -0.5438,0.5438 l -0.6724,0.1631 0.6724,0.1631 c 0.2688,0.0651 0.4787,0.275 0.5438,0.5438 l 0.1631,0.6724 0.1631,-0.6724 c 0.0651,-0.2688 0.275,-0.4787 0.5438,-0.5438 L 21.8793,19.5 21.2069,19.3369 c -0.2688,-0.0651 -0.4787,-0.275 -0.5438,-0.5438 z m 0.3263,-0.3641 c -0.083,-0.3421 -0.5696,-0.3421 -0.6526,0 l -0.2283,0.9416 c -0.0296,0.1222 -0.125,0.2176 -0.2472,0.2472 l -0.9416,0.2283 c -0.3421,0.083 -0.3421,0.5696 0,0.6526 l 0.9416,0.2283 c 0.1222,0.0296 0.2176,0.125 0.2472,0.2472 l 0.2283,0.9416 c 0.083,0.3421 0.5696,0.3421 0.6526,0 l 0.2283,-0.9416 c 0.0296,-0.1222 0.125,-0.2176 0.2472,-0.2472 l 0.9416,-0.2283 c 0.3421,-0.083 0.3421,-0.5696 0,-0.6526 l -0.9416,-0.2283 c -0.1222,-0.0296 -0.2176,-0.125 -0.2472,-0.2472 z"
     id="path123" />
  <path
     style="color:#000000;fill:url(#paint3_linear_2002_2406);-inkscape-stroke:none"
     d="m 16.5,21.5 c 0,0.5523 -0.4477,1 -1,1 -0.5523,0 -1,-0.4477 -1,-1 0,-0.5523 0.4477,-1 1,-1 0.5523,0 1,0.4477 1,1 z"
     id="path125" />
  <path
     style="color:#000000;fill:url(#paint4_linear_2002_2406);-inkscape-stroke:none"
     d="m 22.5,3.5 c 0,0.55228 -0.4477,1 -1,1 -0.5523,0 -1,-0.44772 -1,-1 0,-0.55228 0.4477,-1 1,-1 0.5523,0 1,0.44772 1,1 z"
     id="path127" />
  <path
     style="color:#000000;fill:url(#paint5_linear_2002_2406);-inkscape-stroke:none"
     d="m 9.5,3.5 c 0,0.55228 -0.44772,1 -1,1 -0.55228,0 -1,-0.44772 -1,-1 0,-0.55228 0.44772,-1 1,-1 0.55228,0 1,0.44772 1,1 z"
     id="path129" />
  <path
     style="color:#000000;fill:url(#paint6_linear_2002_2406);-inkscape-stroke:none"
     d="m 4.17369,5.75664 c 0.08298,-0.34219 0.56964,-0.34219 0.65262,0 l 0.22831,0.94155 c 0.02963,0.12217 0.12502,0.21756 0.24719,0.24719 l 0.94155,0.22831 c 0.34219,0.08298 0.34219,0.56964 0,0.65262 L 5.30181,8.05462 C 5.17964,8.08425 5.08425,8.17964 5.05462,8.30181 L 4.82631,9.24336 c -0.08298,0.34219 -0.56964,0.34219 -0.65262,0 L 3.94538,8.30181 C 3.91575,8.17964 3.82036,8.08425 3.69819,8.05462 L 2.75664,7.82631 c -0.34219,-0.08298 -0.34219,-0.56964 0,-0.65262 L 3.69819,6.94538 C 3.82036,6.91575 3.91575,6.82036 3.94538,6.69819 Z"
     id="path131" />
  <path
     style="color:#000000;clip-rule:evenodd;fill:url(#paint7_linear_2002_2406);fill-rule:evenodd;-inkscape-stroke:none"
     d="M 4.5,6.12073 4.33695,6.79314 C 4.27177,7.06192 4.06192,7.27178 3.79314,7.33695 L 3.12073,7.5 3.79314,7.66305 C 4.06192,7.72822 4.27177,7.93808 4.33695,8.20686 L 4.5,8.87927 4.66305,8.20686 C 4.72823,7.93808 4.93808,7.72822 5.20686,7.66305 L 5.87927,7.5 5.20686,7.33695 C 4.93808,7.27178 4.72823,7.06192 4.66305,6.79314 Z M 4.82631,5.75664 c -0.08298,-0.34219 -0.56964,-0.34219 -0.65262,0 L 3.94538,6.69819 C 3.91575,6.82036 3.82036,6.91575 3.69819,6.94538 L 2.75664,7.17369 c -0.34219,0.08298 -0.34219,0.56964 0,0.65262 l 0.94155,0.22831 c 0.12217,0.02963 0.21756,0.12502 0.24719,0.24719 l 0.22831,0.94155 c 0.08298,0.34219 0.56964,0.34219 0.65262,0 L 5.05462,8.30181 C 5.08425,8.17964 5.17964,8.08425 5.30181,8.05462 L 6.24336,7.82631 c 0.34219,-0.08298 0.34219,-0.56964 0,-0.65262 L 5.30181,6.94538 C 5.17964,6.91575 5.08425,6.82036 5.05462,6.69819 Z"
     id="path133" />
  <defs
     id="defs175">
    <linearGradient
       id="paint0_linear_2002_2406"
       x1="-11.6837"
       y1="-3.67347"
       x2="39.7449"
       y2="22.5"
       gradientUnits="userSpaceOnUse">
      <stop
         offset="0.19"
         stop-color="#1254FF"
         id="stop135" />
      <stop
         offset="0.987245"
         stop-color="#2EF2FF"
         id="stop137" />
    </linearGradient>
    <linearGradient
       id="paint1_linear_2002_2406"
       x1="-11.6837"
       y1="-3.67347"
       x2="39.7449"
       y2="22.5"
       gradientUnits="userSpaceOnUse">
      <stop
         offset="0.19"
         stop-color="#1254FF"
         id="stop140" />
      <stop
         offset="0.987245"
         stop-color="#2EF2FF"
         id="stop142" />
    </linearGradient>
    <linearGradient
       id="paint2_linear_2002_2406"
       x1="-11.6837"
       y1="-3.67347"
       x2="39.7449"
       y2="22.5"
       gradientUnits="userSpaceOnUse">
      <stop
         offset="0.19"
         stop-color="#1254FF"
         id="stop145" />
      <stop
         offset="0.987245"
         stop-color="#2EF2FF"
         id="stop147" />
    </linearGradient>
    <linearGradient
       id="paint3_linear_2002_2406"
       x1="-11.6837"
       y1="-3.67347"
       x2="39.7449"
       y2="22.5"
       gradientUnits="userSpaceOnUse">
      <stop
         offset="0.19"
         stop-color="#1254FF"
         id="stop150" />
      <stop
         offset="0.987245"
         stop-color="#2EF2FF"
         id="stop152" />
    </linearGradient>
    <linearGradient
       id="paint4_linear_2002_2406"
       x1="-11.6837"
       y1="-3.67347"
       x2="39.7449"
       y2="22.5"
       gradientUnits="userSpaceOnUse">
      <stop
         offset="0.19"
         stop-color="#1254FF"
         id="stop155" />
      <stop
         offset="0.987245"
         stop-color="#2EF2FF"
         id="stop157" />
    </linearGradient>
    <linearGradient
       id="paint5_linear_2002_2406"
       x1="-11.6837"
       y1="-3.67347"
       x2="39.7449"
       y2="22.5"
       gradientUnits="userSpaceOnUse">
      <stop
         offset="0.19"
         stop-color="#1254FF"
         id="stop160" />
      <stop
         offset="0.987245"
         stop-color="#2EF2FF"
         id="stop162" />
    </linearGradient>
    <linearGradient
       id="paint6_linear_2002_2406"
       x1="-11.6837"
       y1="-3.67347"
       x2="39.7449"
       y2="22.5"
       gradientUnits="userSpaceOnUse">
      <stop
         offset="0.19"
         stop-color="#1254FF"
         id="stop165" />
      <stop
         offset="0.987245"
         stop-color="#2EF2FF"
         id="stop167" />
    </linearGradient>
    <linearGradient
       id="paint7_linear_2002_2406"
       x1="-11.6837"
       y1="-3.67347"
       x2="39.7449"
       y2="22.5"
       gradientUnits="userSpaceOnUse">
      <stop
         offset="0.19"
         stop-color="#1254FF"
         id="stop170" />
      <stop
         offset="0.987245"
         stop-color="#2EF2FF"
         id="stop172" />
    </linearGradient>
  </defs>
</svg>
