<svg width="31" height="32" viewBox="0 0 31 32" fill="none" xmlns="http://www.w3.org/2000/svg">
<path d="M31 15.5C31 6.93959 24.0604 0 15.5 0V0C6.93959 0 0 6.93959 0 15.5V15.5C0 24.0604 6.93959 31 15.5 31H31V15.5Z" fill="#1089FF"/>
<path d="M12.7915 20.6499C12.1095 20.6499 11.5033 20.4731 10.9728 20.1194C10.4424 19.7574 10.0256 19.2438 9.72249 18.5786C9.41938 17.905 9.26782 17.0967 9.26782 16.1537C9.26782 15.2107 9.41938 14.4066 9.72249 13.7415C10.0256 13.0679 10.4424 12.5543 10.9728 12.2007C11.5033 11.8386 12.1095 11.6576 12.7915 11.6576C13.4735 11.6576 14.0797 11.8386 14.6102 12.2007C15.1406 12.5543 15.5574 13.0679 15.8605 13.7415C16.172 14.4066 16.3278 15.2107 16.3278 16.1537C16.3278 17.0967 16.172 17.905 15.8605 18.5786C15.5574 19.2438 15.1406 19.7574 14.6102 20.1194C14.0797 20.4731 13.4735 20.6499 12.7915 20.6499ZM12.7915 19.8163C13.3135 19.8163 13.7682 19.6774 14.1555 19.3995C14.5428 19.1133 14.8459 18.7007 15.0648 18.1618C15.2837 17.6146 15.3932 16.9452 15.3932 16.1537C15.3932 15.3623 15.2837 14.6971 15.0648 14.1582C14.8459 13.611 14.5428 13.1984 14.1555 12.9205C13.7682 12.6343 13.3135 12.4911 12.7915 12.4911C12.2863 12.4911 11.8358 12.6343 11.4401 12.9205C11.0444 13.1984 10.7371 13.611 10.5182 14.1582C10.2992 14.6971 10.1898 15.3623 10.1898 16.1537C10.1898 16.9452 10.2992 17.6146 10.5182 18.1618C10.7371 18.7007 11.0444 19.1133 11.4401 19.3995C11.8358 19.6774 12.2863 19.8163 12.7915 19.8163ZM19.1708 20.5741V12.1122L19.575 12.5417H17.0869V11.7334H20.0802V20.5741H19.1708Z" fill="#F0F0F0"/>
</svg>
