<svg width="31" height="32" viewBox="0 0 31 32" fill="none" xmlns="http://www.w3.org/2000/svg">
<path d="M31 15.5C31 6.93959 24.0604 0 15.5 0V0C6.93959 0 0 6.93959 0 15.5V15.5C0 24.0604 6.93959 31 15.5 31H31V15.5Z" fill="#FFEA2B"/>
<path d="M12.7915 20.6499C12.1095 20.6499 11.5033 20.4731 10.9728 20.1194C10.4424 19.7574 10.0256 19.2438 9.72249 18.5786C9.41938 17.905 9.26782 17.0967 9.26782 16.1537C9.26782 15.2107 9.41938 14.4066 9.72249 13.7415C10.0256 13.0679 10.4424 12.5543 10.9728 12.2007C11.5033 11.8386 12.1095 11.6576 12.7915 11.6576C13.4735 11.6576 14.0797 11.8386 14.6102 12.2007C15.1406 12.5543 15.5574 13.0679 15.8605 13.7415C16.172 14.4066 16.3278 15.2107 16.3278 16.1537C16.3278 17.0967 16.172 17.905 15.8605 18.5786C15.5574 19.2438 15.1406 19.7574 14.6102 20.1194C14.0797 20.4731 13.4735 20.6499 12.7915 20.6499ZM12.7915 19.8163C13.3135 19.8163 13.7682 19.6774 14.1555 19.3995C14.5428 19.1133 14.8459 18.7007 15.0648 18.1618C15.2837 17.6146 15.3932 16.9452 15.3932 16.1537C15.3932 15.3623 15.2837 14.6971 15.0648 14.1582C14.8459 13.611 14.5428 13.1984 14.1555 12.9205C13.7682 12.6343 13.3135 12.4911 12.7915 12.4911C12.2863 12.4911 11.8358 12.6343 11.4401 12.9205C11.0444 13.1984 10.7371 13.611 10.5182 14.1582C10.2992 14.6971 10.1898 15.3623 10.1898 16.1537C10.1898 16.9452 10.2992 17.6146 10.5182 18.1618C10.7371 18.7007 11.0444 19.1133 11.4401 19.3995C11.8358 19.6774 12.2863 19.8163 12.7915 19.8163ZM20.1463 20.6499C19.5064 20.6499 18.9002 20.5488 18.3276 20.3468C17.7635 20.1363 17.3088 19.8584 16.9636 19.5132L17.4056 18.7933C17.6919 19.088 18.075 19.3322 18.5549 19.5258C19.0433 19.7195 19.5737 19.8163 20.1463 19.8163C20.8788 19.8163 21.4387 19.6563 21.826 19.3364C22.2217 19.0164 22.4196 18.587 22.4196 18.0482C22.4196 17.5093 22.226 17.0799 21.8386 16.7599C21.4598 16.44 20.8577 16.28 20.0326 16.28H19.4011V15.6107L22.1291 12.188L22.2554 12.5417H17.3299V11.7334H23.0132V12.3775L20.2852 15.8001L19.8432 15.5096H20.1842C21.2451 15.5096 22.0365 15.7454 22.5585 16.2169C23.089 16.6884 23.3542 17.2946 23.3542 18.0355C23.3542 18.5323 23.2363 18.9786 23.0006 19.3743C22.7648 19.77 22.407 20.0815 21.9271 20.3089C21.4555 20.5362 20.862 20.6499 20.1463 20.6499Z" fill="#0F1217"/>
</svg>
